<svg width="704" height="704" viewBox="0 0 704 704" fill="none" xmlns="http://www.w3.org/2000/svg">
<rect width="704" height="704" fill="#1C2028"/>
<mask id="path-2-inside-1_2140_868" fill="white">
<path fill-rule="evenodd" clip-rule="evenodd" d="M221.369 364.007V388.791C226.014 388.19 230.35 387.109 234.375 385.548C240.915 383.011 246.468 379.459 251.034 374.893C255.601 370.326 259.096 364.886 261.52 358.572C264.001 352.258 265.241 345.324 265.241 337.77V331.206C265.35 331.161 265.459 331.108 265.566 331.046L276.421 324.779C278.176 323.766 278.176 321.234 276.421 320.221L265.566 313.954C265.459 313.892 265.35 313.839 265.241 313.794V264.792H236.659V337.77C236.659 342.111 236.095 346.001 234.967 349.44C233.896 352.822 232.318 355.697 230.232 358.065C228.146 360.433 225.581 362.265 222.537 363.561C222.154 363.72 221.765 363.869 221.369 364.007ZM202.369 388.68V363.712C202.241 363.663 202.114 363.613 201.988 363.561C199 362.265 196.463 360.433 194.377 358.065C192.292 355.641 190.685 352.737 189.557 349.355C188.486 345.916 187.951 342.026 187.951 337.685V264.792H159.369V313.6C158.967 313.618 158.558 313.73 158.171 313.954L147.316 320.221C145.562 321.234 145.562 323.766 147.316 324.779L158.171 331.046C158.558 331.27 158.967 331.382 159.369 331.4V337.77C159.369 345.324 160.581 352.258 163.005 358.572C165.429 364.886 168.924 370.326 173.49 374.893C178.057 379.459 183.61 383.011 190.149 385.548C193.938 387.018 198.012 388.062 202.369 388.68Z"/>
</mask>
<path fill-rule="evenodd" clip-rule="evenodd" d="M221.369 364.007V388.791C226.014 388.19 230.35 387.109 234.375 385.548C240.915 383.011 246.468 379.459 251.034 374.893C255.601 370.326 259.096 364.886 261.52 358.572C264.001 352.258 265.241 345.324 265.241 337.77V331.206C265.35 331.161 265.459 331.108 265.566 331.046L276.421 324.779C278.176 323.766 278.176 321.234 276.421 320.221L265.566 313.954C265.459 313.892 265.35 313.839 265.241 313.794V264.792H236.659V337.77C236.659 342.111 236.095 346.001 234.967 349.44C233.896 352.822 232.318 355.697 230.232 358.065C228.146 360.433 225.581 362.265 222.537 363.561C222.154 363.72 221.765 363.869 221.369 364.007ZM202.369 388.68V363.712C202.241 363.663 202.114 363.613 201.988 363.561C199 362.265 196.463 360.433 194.377 358.065C192.292 355.641 190.685 352.737 189.557 349.355C188.486 345.916 187.951 342.026 187.951 337.685V264.792H159.369V313.6C158.967 313.618 158.558 313.73 158.171 313.954L147.316 320.221C145.562 321.234 145.562 323.766 147.316 324.779L158.171 331.046C158.558 331.27 158.967 331.382 159.369 331.4V337.77C159.369 345.324 160.581 352.258 163.005 358.572C165.429 364.886 168.924 370.326 173.49 374.893C178.057 379.459 183.61 383.011 190.149 385.548C193.938 387.018 198.012 388.062 202.369 388.68Z" fill="#80FF00"/>
<path d="M221.369 388.791H220.053V390.288L221.537 390.096L221.369 388.791ZM221.369 364.007L220.935 362.765L220.053 363.073V364.007H221.369ZM234.375 385.548L233.9 384.321L234.375 385.548ZM251.034 374.893L250.104 373.962L251.034 374.893ZM261.52 358.572L260.295 358.091L260.292 358.101L261.52 358.572ZM265.241 331.206L264.74 329.99L263.925 330.325V331.206H265.241ZM265.566 331.046L266.224 332.186L266.224 332.186L265.566 331.046ZM276.421 324.779L275.763 323.64L276.421 324.779ZM276.421 320.221L275.763 321.36L276.421 320.221ZM265.566 313.954L266.224 312.814L266.224 312.814L265.566 313.954ZM265.241 313.794H263.925V314.675L264.74 315.01L265.241 313.794ZM265.241 264.792H266.557V263.477H265.241V264.792ZM236.659 264.792V263.477H235.343V264.792H236.659ZM234.967 349.44L233.717 349.03L233.713 349.042L234.967 349.44ZM222.537 363.561L223.041 364.777L223.052 364.772L222.537 363.561ZM202.369 363.712H203.684V362.81L202.843 362.485L202.369 363.712ZM202.369 388.68L202.184 389.983L203.684 390.196V388.68H202.369ZM201.988 363.561L201.464 364.768L201.478 364.774L201.492 364.78L201.988 363.561ZM194.377 358.065L193.38 358.923L193.385 358.929L193.39 358.935L194.377 358.065ZM189.557 349.355L188.301 349.746L188.305 349.759L188.309 349.771L189.557 349.355ZM187.951 264.792H189.266V263.477H187.951V264.792ZM159.369 264.792V263.477H158.053V264.792H159.369ZM159.369 313.6L159.427 314.914L160.684 314.858V313.6H159.369ZM158.171 313.954L158.829 315.093H158.829L158.171 313.954ZM147.316 320.221L146.658 319.081H146.658L147.316 320.221ZM147.316 324.779L147.974 323.64H147.974L147.316 324.779ZM158.171 331.046L157.513 332.186L157.513 332.186L158.171 331.046ZM159.369 331.4H160.684V330.142L159.427 330.086L159.369 331.4ZM163.005 358.572L164.233 358.101L163.005 358.572ZM173.49 374.893L174.421 373.962H174.421L173.49 374.893ZM190.149 385.548L190.625 384.321L190.149 385.548ZM222.684 388.791V364.007H220.053V388.791H222.684ZM233.9 384.321C229.981 385.841 225.749 386.898 221.2 387.486L221.537 390.096C226.279 389.483 230.719 388.378 234.851 386.774L233.9 384.321ZM250.104 373.962C245.678 378.389 240.283 381.844 233.9 384.321L234.851 386.774C241.546 384.177 247.258 380.53 251.965 375.823L250.104 373.962ZM260.292 358.101C257.93 364.251 254.534 369.533 250.104 373.962L251.965 375.823C256.668 371.12 260.261 365.522 262.748 359.044L260.292 358.101ZM263.925 337.77C263.925 345.178 262.709 351.947 260.295 358.091L262.745 359.053C265.292 352.57 266.557 345.47 266.557 337.77H263.925ZM263.925 331.206V337.77H266.557V331.206H263.925ZM265.742 332.423C265.906 332.356 266.067 332.277 266.224 332.186L264.908 329.907C264.851 329.94 264.795 329.967 264.74 329.99L265.742 332.423ZM266.224 332.186L277.079 325.919L275.763 323.64L264.908 329.907L266.224 332.186ZM277.079 325.919C279.711 324.399 279.711 320.601 277.079 319.081L275.763 321.36C276.64 321.867 276.64 323.133 275.763 323.64L277.079 325.919ZM277.079 319.081L266.224 312.814L264.908 315.093L275.763 321.36L277.079 319.081ZM266.224 312.814C266.067 312.723 265.906 312.644 265.742 312.577L264.74 315.01C264.795 315.033 264.851 315.06 264.908 315.093L266.224 312.814ZM263.925 264.792V313.794H266.557V264.792H263.925ZM236.659 266.108H265.241V263.477H236.659V266.108ZM237.974 337.77V264.792H235.343V337.77H237.974ZM236.218 349.849C237.396 346.255 237.974 342.223 237.974 337.77H235.343C235.343 341.998 234.794 345.746 233.717 349.03L236.218 349.849ZM231.219 358.935C233.44 356.414 235.102 353.372 236.222 349.837L233.713 349.042C232.69 352.272 231.195 354.981 229.245 357.195L231.219 358.935ZM223.052 364.772C226.268 363.402 228.997 361.457 231.219 358.935L229.245 357.195C227.295 359.408 224.894 361.127 222.021 362.351L223.052 364.772ZM221.802 365.249C222.222 365.103 222.635 364.945 223.041 364.777L222.032 362.346C221.673 362.495 221.308 362.635 220.935 362.765L221.802 365.249ZM201.053 363.712V388.68H203.684V363.712H201.053ZM201.492 364.78C201.625 364.834 201.759 364.888 201.894 364.94L202.843 362.485C202.723 362.439 202.603 362.391 202.484 362.343L201.492 364.78ZM193.39 358.935C195.608 361.452 198.305 363.397 201.464 364.768L202.512 362.354C199.695 361.132 197.319 359.413 195.365 357.195L193.39 358.935ZM188.309 349.771C189.484 353.297 191.17 356.355 193.38 358.923L195.375 357.207C193.413 354.926 191.885 352.178 190.806 348.939L188.309 349.771ZM186.635 337.685C186.635 342.133 187.183 346.158 188.301 349.746L190.814 348.964C189.789 345.674 189.266 341.92 189.266 337.685H186.635ZM186.635 264.792V337.685H189.266V264.792H186.635ZM159.369 266.108H187.951V263.477H159.369V266.108ZM160.684 313.6V264.792H158.053V313.6H160.684ZM158.829 315.093C159.031 314.976 159.234 314.923 159.427 314.914L159.31 312.285C158.7 312.312 158.085 312.484 157.513 312.814L158.829 315.093ZM147.974 321.36L158.829 315.093L157.513 312.814L146.658 319.081L147.974 321.36ZM147.974 323.64C147.097 323.133 147.097 321.867 147.974 321.36L146.658 319.081C144.026 320.601 144.026 324.399 146.658 325.919L147.974 323.64ZM158.829 329.907L147.974 323.64L146.658 325.919L157.513 332.186L158.829 329.907ZM159.427 330.086C159.234 330.077 159.031 330.024 158.829 329.907L157.513 332.186C158.085 332.516 158.7 332.688 159.31 332.715L159.427 330.086ZM160.684 337.77V331.4H158.053V337.77H160.684ZM164.233 358.101C161.873 351.954 160.684 345.182 160.684 337.77H158.053C158.053 345.467 159.288 352.563 161.776 359.044L164.233 358.101ZM174.421 373.962C169.991 369.533 166.594 364.251 164.233 358.101L161.776 359.044C164.263 365.522 167.857 371.12 172.56 375.823L174.421 373.962ZM190.625 384.321C184.241 381.844 178.847 378.389 174.421 373.962L172.56 375.823C177.267 380.53 182.978 384.177 189.673 386.774L190.625 384.321ZM202.553 387.377C198.288 386.772 194.313 385.752 190.625 384.321L189.673 386.774C193.564 388.284 197.735 389.351 202.184 389.983L202.553 387.377Z" fill="#80FF00" mask="url(#path-2-inside-1_2140_868)"/>
<path d="M446.388 377.003L446.134 377.31C444.24 379.607 441.974 381.613 439.341 383.33L439.335 383.335C436.71 384.989 433.887 386.358 430.866 387.441C430.866 387.441 430.865 387.441 430.865 387.441L430.696 386.97C427.765 388.042 424.72 388.831 421.563 389.338L446.388 377.003ZM446.388 377.003L446.145 376.687L441.922 371.198C441.146 370.104 440.033 369.558 438.645 369.558C437.541 369.558 436.286 370.072 434.903 370.993C433.626 371.826 432.008 372.747 430.045 373.757C428.102 374.756 425.761 375.705 423.018 376.6C420.374 377.426 417.186 377.845 413.445 377.845C409.441 377.845 405.842 377.206 402.64 375.937C399.442 374.613 396.687 372.657 394.371 370.065C392.054 367.417 390.224 364.123 388.889 360.173C387.598 356.356 386.875 351.871 386.729 346.711H443.211C444.7 346.711 445.868 346.293 446.507 345.298C446.816 344.818 447.02 344.147 447.151 343.331C447.284 342.506 447.348 341.491 447.348 340.292C447.348 334.156 446.439 328.684 444.61 323.882C442.842 319.034 440.355 314.969 437.142 311.699C433.935 308.377 430.126 305.858 425.722 304.142C421.317 302.369 416.518 301.485 411.331 301.485C405.071 301.485 399.42 302.595 394.388 304.825C389.365 306.994 385.106 310.023 381.617 313.911C378.131 317.741 375.449 322.28 373.569 327.523L373.567 327.528C371.743 332.772 370.833 338.409 370.833 344.436C370.833 351.866 371.854 358.464 373.907 364.222C375.956 369.971 378.807 374.824 382.467 378.77L382.467 378.77L382.472 378.775C386.186 382.66 390.557 385.631 395.583 387.687L395.589 387.689C400.67 389.688 406.201 390.684 412.177 390.684C415.307 390.684 418.463 390.399 421.647 389.831L446.388 377.003ZM345.453 385.936L345.457 385.969L345.466 386.002C345.769 387.122 346.297 388.01 347.081 388.614C347.865 389.218 348.855 389.5 350.008 389.5H358.971H359.471V389V264.439V263.604L358.735 263.999L343.683 272.059L343.419 272.201V272.5V310.706C340.662 307.89 337.574 305.677 334.156 304.071C330.352 302.227 325.793 301.316 320.495 301.316C314.622 301.316 309.357 302.485 304.712 304.836C300.081 307.123 296.135 310.298 292.876 314.357L292.874 314.36C289.674 318.416 287.224 323.208 285.516 328.728C283.809 334.193 282.957 340.106 282.957 346.465C282.957 353.603 283.722 359.935 285.259 365.457C286.794 370.973 288.989 375.601 291.855 379.326C294.72 383.05 298.191 385.892 302.268 387.844L302.273 387.847C306.349 389.741 310.875 390.684 315.844 390.684C322.008 390.684 327.479 389.342 332.242 386.645L332.244 386.644C336.721 384.085 340.722 380.757 344.246 376.661L345.453 385.936ZM333.428 374.197L333.425 374.199C329.85 376.399 325.659 377.507 320.834 377.507C317.395 377.507 314.364 376.925 311.732 375.773C309.113 374.627 306.898 372.826 305.087 370.356C303.273 367.828 301.887 364.622 300.94 360.724C299.994 356.77 299.517 352.02 299.517 346.465C299.517 335.982 301.648 327.986 305.843 322.412C310.02 316.86 316.008 314.07 323.878 314.07C327.816 314.07 331.379 314.819 334.575 316.307L334.575 316.307L334.585 316.311C337.774 317.716 340.721 320.201 343.419 323.799V364.901C340.377 368.91 337.045 372.004 333.428 374.197ZM394.857 319.759L394.859 319.756C398.917 315.644 404.499 313.563 411.67 313.563C415.051 313.563 418.024 314.145 420.598 315.295L420.598 315.295L420.61 315.3C423.247 316.399 425.466 317.989 427.274 320.071L427.279 320.076C429.089 322.105 430.466 324.552 431.405 327.425L431.406 327.427C432.299 330.108 432.771 333.072 432.814 336.325H387.3C388.356 329.236 390.887 323.729 394.857 319.759ZM446.377 302.838H445.633L445.914 303.527L480.839 389.189L480.965 389.5H481.302H494.916H495.252L495.379 389.189L530.303 303.527L530.584 302.838H529.84H518.086C516.862 302.838 515.792 303.177 514.904 303.874C514.096 304.496 513.507 305.304 513.138 306.287C513.137 306.288 513.137 306.29 513.136 306.291L491.154 361.417L491.152 361.421C490.356 363.469 489.701 365.518 489.188 367.569C488.87 368.841 488.563 370.102 488.267 371.351C488.008 370.106 487.737 368.849 487.455 367.582C486.999 365.526 486.371 363.473 485.573 361.421L485.572 361.418L463.84 306.284L463.839 306.281C463.464 305.346 462.843 304.544 461.992 303.875C461.1 303.174 459.998 302.838 458.723 302.838H446.377Z" fill="#80FF00" stroke="#80FF00"/>
<path d="M555 281C555 289.284 548.284 296 540 296C531.716 296 525 289.284 525 281C525 272.716 531.716 266 540 266C548.284 266 555 272.716 555 281Z" stroke="#80FF00" stroke-width="2"/>
<path d="M542.36 282.574C542.709 282.426 543.023 282.247 543.303 282.037C543.65 281.781 543.942 281.49 544.177 281.164C544.418 280.833 544.6 280.473 544.72 280.086C544.841 279.699 544.901 279.288 544.901 278.854C544.901 278.287 544.8 277.759 544.597 277.274C544.391 276.784 544.061 276.36 543.61 276.004C543.164 275.647 542.589 275.373 541.889 275.18C541.192 274.979 540.353 274.881 539.374 274.881H535H534.881V275V288V288.119H535H538.119H538.238V288V283.31H538.913C539.144 283.31 539.305 283.345 539.409 283.402L539.409 283.402L539.411 283.403C539.522 283.462 539.624 283.563 539.714 283.715L539.714 283.716L541.948 287.49L541.948 287.49C542.201 287.914 542.62 288.119 543.176 288.119H546H546.217L546.101 287.936L543.24 283.413C543.098 283.188 542.93 282.997 542.735 282.84C542.617 282.741 542.492 282.653 542.36 282.574ZM541.078 277.83L541.079 277.831C541.435 278.126 541.617 278.537 541.617 279.078C541.617 279.351 541.576 279.605 541.495 279.841C541.415 280.067 541.287 280.265 541.109 280.437C540.933 280.607 540.703 280.745 540.415 280.848C540.135 280.943 539.79 280.993 539.374 280.993H538.238V277.377H539.374C540.168 277.377 540.728 277.536 541.078 277.83Z" fill="#80FF00" stroke="#80FF00" stroke-width="0.238532"/>
</svg>
